<svg id="SCP-logo" xmlns="http://www.w3.org/2000/svg" width="209.926" height="52.72" viewBox="0 0 209.926 52.72">
  <path id="Path_2172" data-name="Path 2172" d="M30.8,6.9h-4c0-1.815-1.512-3.164-4.048-3.164-2.117,0-4.095.814-4.095,2.327S20.1,8.017,23.31,8.692c5,1,8.143,2.327,8.143,6.538s-3.4,6.584-8.678,6.584c-4.118,0-8.585-2.327-8.585-7.329h3.978c0,2.489,2.489,3.676,4.653,3.676s4.653-.838,4.653-2.815c0-1.326-1.07-2.164-4.956-2.908s-7.841-1.768-7.841-6.282c0-3.583,3.164-6.1,8.073-6.1C28.289.06,30.8,3.62,30.8,6.9Z" transform="translate(18.824 0.08)" fill="#3c235b"/>
  <path id="Path_2173" data-name="Path 2173" d="M38.181,10.471A7.841,7.841,0,1,1,30.341,2.63a7.841,7.841,0,0,1,7.841,7.841Zm-4,0a3.909,3.909,0,1,0-7.7,0,3.885,3.885,0,1,0,7.7,0Z" transform="translate(29.848 3.489)" fill="#3c235b"/>
  <path id="Path_2174" data-name="Path 2174" d="M44.323,18.41H40.344v-9.1a2.792,2.792,0,0,0-2.908-3.094,2.955,2.955,0,0,0-3.025,3.094v9.1h-4V2.846h3.816V4.358A5.142,5.142,0,0,1,38.251,2.45a6.142,6.142,0,0,1,6.072,6.98Z" transform="translate(40.341 3.25)" fill="#3c235b"/>
  <path id="Path_2175" data-name="Path 2175" d="M53.231,10.728a7.864,7.864,0,1,1-15.7,0,7.864,7.864,0,1,1,15.7,0Zm-4.025,0a3.909,3.909,0,1,0-7.678,0,3.885,3.885,0,1,0,7.678,0Z" transform="translate(49.766 3.232)" fill="#3c235b"/>
  <path id="Path_2176" data-name="Path 2176" d="M69.311,18.416H65.355v-9.1a2.792,2.792,0,0,0-2.908-3.094A2.955,2.955,0,0,0,59.4,9.319v9.1H55.374v-9.1a2.792,2.792,0,0,0-2.908-3.094,2.955,2.955,0,0,0-3,3.094v9.1H45.44V2.852h3.839V4.364A5.049,5.049,0,0,1,53.3,2.456a5.723,5.723,0,0,1,4.653,2.21,6.026,6.026,0,0,1,4.653-2.21,6.282,6.282,0,0,1,6.607,6.98Z" transform="translate(60.279 3.244)" fill="#3c235b"/>
  <path id="Path_2177" data-name="Path 2177" d="M67.928,16.928a6.259,6.259,0,0,1-4.769,1.745c-3.3,0-6.328-1.652-6.328-5.049S59.761,9.2,63.2,8.971c2.606-.233,4.444-.535,4.444-1.815,0-.814-1.047-1.466-2.838-1.466a3.4,3.4,0,0,0-3.42,1.954H57.412c.4-2.955,3.234-5.165,7.305-5.165,6.328,0,6.817,4.071,6.817,5.328v8.027a9.469,9.469,0,0,0,.442,2.536H68.323a5.352,5.352,0,0,1-.4-1.442Zm-.116-6.049a9.446,9.446,0,0,1-3.792,1c-1.954.209-3.164.628-3.164,1.791s1.024,1.466,2.629,1.466c2.327,0,4.327-.814,4.327-2.815Z" transform="translate(75.389 3.29)" fill="#3c235b"/>
  <path id="Path_2178" data-name="Path 2178" d="M24.294,34.958A10.47,10.47,0,0,1,14.127,24,10.446,10.446,0,0,1,24.294,13.065a9.516,9.516,0,0,1,9.562,6.98H29.529a5.77,5.77,0,0,0-5.235-3.327A6.817,6.817,0,0,0,18.128,24a6.817,6.817,0,0,0,6.165,7.329,5.863,5.863,0,0,0,5.235-3.4h4.3a9.655,9.655,0,0,1-9.539,7.026Z" transform="translate(18.725 17.32)" fill="#3c235b"/>
  <path id="Path_2179" data-name="Path 2179" d="M27.722,35.138h-4V12.64h4Z" transform="translate(31.466 16.768)" fill="#3c235b"/>
  <path id="Path_2180" data-name="Path 2180" d="M30.433,25.119a3.978,3.978,0,0,0,3.909,3.164,3.653,3.653,0,0,0,3.3-1.815H41.9A7.375,7.375,0,0,1,34.365,31.8a8.166,8.166,0,0,1,0-16.286c4.653,0,8.422,3.56,7.841,9.748Zm7.817-3.28a3.909,3.909,0,0,0-3.909-2.862A3.978,3.978,0,0,0,30.5,21.931Z" transform="translate(35.572 20.575)" fill="#3c235b"/>
  <path id="Path_2181" data-name="Path 2181" d="M45.328,29.928a6.259,6.259,0,0,1-4.769,1.745c-3.3,0-6.328-1.652-6.328-5.049s2.931-4.42,6.375-4.653c2.606-.233,4.444-.535,4.444-1.815,0-.814-1.047-1.466-2.838-1.466a3.4,3.4,0,0,0-3.42,1.954H34.858c.372-2.955,3.234-5.165,7.305-5.165,6.328,0,6.817,4.071,6.817,5.328v8.1a9.469,9.469,0,0,0,.442,2.536H45.77a5.351,5.351,0,0,1-.442-1.512Zm0-6.049a9.562,9.562,0,0,1-3.792,1c-1.954.209-3.164.628-3.164,1.791S39.395,28.137,41,28.137c2.327,0,4.327-.814,4.327-2.815Z" transform="translate(45.408 20.535)" fill="#3c235b"/>
  <path id="Path_2182" data-name="Path 2182" d="M56.1,31.41H52.124v-9.1a2.792,2.792,0,0,0-2.908-3.094,2.955,2.955,0,0,0-3.025,3.094v9.1h-4V15.846h3.816v1.512a5.118,5.118,0,0,1,4.025-1.908A6.142,6.142,0,0,1,56.1,22.313Z" transform="translate(55.968 20.495)" fill="#3c235b"/>
  <path id="Path_2183" data-name="Path 2183" d="M62.661,26.778H57.728v7.492H53.75V13.33h8.818a6.328,6.328,0,0,1,6.98,6.77,6.445,6.445,0,0,1-6.887,6.677Zm-4.932-9.772v6.119h4.816a2.7,2.7,0,0,0,2.978-3.071,2.7,2.7,0,0,0-2.978-3.048Z" transform="translate(71.303 17.636)" fill="#3c235b"/>
  <path id="Path_2184" data-name="Path 2184" d="M76.648,23.471a7.841,7.841,0,1,1-15.635,0,7.841,7.841,0,0,1,15.681,0Zm-4,0a3.909,3.909,0,1,0-7.678,0,3.885,3.885,0,1,0,7.678,0Z" transform="translate(80.907 20.734)" fill="#3c235b"/>
  <path id="Path_2185" data-name="Path 2185" d="M86.752,31.185H82.634L79.819,20.878,77,31.185H72.863L68,15.62h4.234L74.98,26.508,77.818,15.62h4l2.838,10.888L87.38,15.62h4.234Z" transform="translate(90.207 20.721)" fill="#3c235b"/>
  <path id="Path_2186" data-name="Path 2186" d="M82.243,25.119a3.955,3.955,0,0,0,3.885,3.164,3.606,3.606,0,0,0,3.3-1.815H93.69A7.352,7.352,0,0,1,86.175,31.8a8.166,8.166,0,0,1,0-16.286c4.653,0,8.4,3.56,7.817,9.748Zm7.794-3.28a3.909,3.909,0,0,0-3.909-2.862,3.978,3.978,0,0,0-3.839,2.955Z" transform="translate(104.301 20.575)" fill="#3c235b"/>
  <path id="Path_2187" data-name="Path 2187" d="M95.271,19.4a4.3,4.3,0,0,0-3.862.977,4.653,4.653,0,0,0-.977,3.327v7.654h-4V15.844h3.816v1.536a5.235,5.235,0,0,1,5.025-1.838Z" transform="translate(114.655 20.497)" fill="#3c235b"/>
  <path id="Path_2188" data-name="Path 2188" d="M11.748,12.043h3.49V8.46H6.63a33.317,33.317,0,0,1,5.118,3.583Z" transform="translate(8.795 11.223)" fill="#e0e622"/>
  <rect id="Rectangle_1579" data-name="Rectangle 1579" width="24.033" height="3.606" transform="translate(0 9.841)" fill="#e0e622"/>
  <rect id="Rectangle_1580" data-name="Rectangle 1580" width="24.033" height="3.606" fill="#e0e622"/>
  <path id="Path_2189" data-name="Path 2189" d="M0,16.71v3.606c1.861,0,2.327.326,5,2.582a27.384,27.384,0,0,0,19.031,7.654V26.947a23.5,23.5,0,0,1-16.7-6.817C4.467,17.687,3.187,16.71,0,16.71Z" transform="translate(0 22.167)" fill="#00b9d4"/>
  <path id="Path_2190" data-name="Path 2190" d="M19.055,16.366a36.876,36.876,0,0,0-6.561-4.653A25.988,25.988,0,0,0,0,8.711v3.606a23.452,23.452,0,0,1,16.7,6.817c2.885,2.443,4.165,3.42,7.329,3.42V18.948C22.2,18.948,21.684,18.692,19.055,16.366Z" transform="translate(0 11.553)" fill="#00b9d4"/>
  <path id="Path_2191" data-name="Path 2191" d="M0,12.71H0v3.606H0a14.681,14.681,0,0,1,10.842,4.653,18.613,18.613,0,0,0,13.192,5.537v-3.56a14.844,14.844,0,0,1-10.842-4.653A18.4,18.4,0,0,0,0,12.71Z" transform="translate(0 16.861)" fill="#00b9d4"/>
</svg>
